<svg id="discord-svgrepo-com" xmlns="http://www.w3.org/2000/svg" width="32.861" height="37.818" viewBox="0 0 32.861 37.818">
  <path id="Path_87" data-name="Path 87" d="M10.539,10.971a2,2,0,0,0-1.915,2.085,2.016,2.016,0,0,0,1.915,2.085,2,2,0,0,0,1.913-2.085A1.985,1.985,0,0,0,10.539,10.971Zm6.855,0a2,2,0,0,0-1.915,2.085,2.016,2.016,0,0,0,1.915,2.085,2,2,0,0,0,1.913-2.085A2,2,0,0,0,17.394,10.971Z" transform="translate(2.492 4.785)" fill="#fff"/>
  <path id="Path_88" data-name="Path 88" d="M32.013,3H6.848A3.872,3.872,0,0,0,3,6.9V32.46a3.872,3.872,0,0,0,3.848,3.9H28.142l-1-3.5,2.406,2.251,2.271,2.118,4.04,3.595V6.9A3.872,3.872,0,0,0,32.013,3Zm-7.25,24.7s-.676-.812-1.237-1.535a5.935,5.935,0,0,0,3.4-2.249,10.854,10.854,0,0,1-2.16,1.119,13.117,13.117,0,0,1-7.586.792,15.62,15.62,0,0,1-2.759-.816,10.643,10.643,0,0,1-1.37-.639c-.057-.042-.113-.058-.168-.1a.232.232,0,0,1-.077-.06c-.338-.187-.526-.318-.526-.318a5.845,5.845,0,0,0,3.287,2.231C15,26.841,14.3,27.7,14.3,27.7A6.8,6.8,0,0,1,8.58,24.821a25.45,25.45,0,0,1,2.7-11.023,9.229,9.229,0,0,1,5.276-1.986l.188.227a12.676,12.676,0,0,0-4.94,2.478s.415-.227,1.109-.547a14.079,14.079,0,0,1,4.262-1.192,1.951,1.951,0,0,1,.32-.038,15.24,15.24,0,0,1,9.444,1.777,12.492,12.492,0,0,0-4.677-2.4l.263-.3A9.225,9.225,0,0,1,27.8,13.8a25.45,25.45,0,0,1,2.7,11.023A6.863,6.863,0,0,1,24.762,27.7Z" transform="translate(-3 -3)" fill="#fff"/>
</svg>
