<svg id="discord-svgrepo-com" xmlns="http://www.w3.org/2000/svg" width="25.453" height="29.293" viewBox="0 0 25.453 29.293">
  <path id="Path_87" data-name="Path 87" d="M10.108,10.971a1.621,1.621,0,0,0,0,3.23,1.551,1.551,0,0,0,1.482-1.615A1.537,1.537,0,0,0,10.108,10.971Zm5.31,0a1.621,1.621,0,0,0,0,3.23A1.551,1.551,0,0,0,16.9,12.586,1.549,1.549,0,0,0,15.417,10.971Z" transform="translate(-0.014 1.233)" fill="#fff"/>
  <path id="Path_88" data-name="Path 88" d="M25.472,3H5.981A3,3,0,0,0,3,6.017v19.8a3,3,0,0,0,2.981,3.017H22.475L21.7,26.124l1.863,1.744,1.759,1.64,3.129,2.784V6.017A3,3,0,0,0,25.472,3ZM19.857,22.128s-.524-.629-.958-1.189A4.6,4.6,0,0,0,21.53,19.2a8.407,8.407,0,0,1-1.673.866,10.16,10.16,0,0,1-5.876.614,12.1,12.1,0,0,1-2.137-.632,8.244,8.244,0,0,1-1.061-.495c-.044-.032-.087-.045-.13-.074a.179.179,0,0,1-.06-.046c-.262-.145-.407-.247-.407-.247a4.527,4.527,0,0,0,2.546,1.728c-.436.555-.975,1.216-.975,1.216A5.264,5.264,0,0,1,7.322,19.9a19.713,19.713,0,0,1,2.094-8.538A7.148,7.148,0,0,1,13.5,9.825l.145.176A9.819,9.819,0,0,0,9.822,11.92s.322-.176.859-.424a10.905,10.905,0,0,1,3.3-.923,1.511,1.511,0,0,1,.248-.029,11.8,11.8,0,0,1,7.315,1.377,9.676,9.676,0,0,0-3.622-1.859l.2-.234a7.145,7.145,0,0,1,4.086,1.539A19.713,19.713,0,0,1,24.307,19.9,5.316,5.316,0,0,1,19.857,22.128Z" transform="translate(-3 -3)" fill="#fff"/>
</svg>
