<svg xmlns="http://www.w3.org/2000/svg" width="44.222" height="35.562" viewBox="0 0 44.222 35.562">
  <path id="hooded-assassin-svgrepo-com" d="M49.237,66.13a6.817,6.817,0,0,0-6.354,3.805c1.946.163,1.5,5.155,1.5,5.155-1.106,1.562-2.315,3.106-3.425,4.694,0,0-9.272,12.383-16.7,15.729a15.973,15.973,0,0,0-4.132,4.928c-.457.893.867,1.341,1.1,1.236,2.127-.979,2.357-1.953,4.406-3.339,1.2-.47,2.232-1.488,2.982-1.034,3.273,1.953,10.068,4.145,11.071,3.623,1.672-.867-.541-4.08,1.514-8.337,2.993-.314,5.515-.083,8.269-1.132.326,4.707.946,5.11.633,10.025l6.665.1.065-1.368-3.914-1.04a28.083,28.083,0,0,0,.437-11.982c-.089-.62-5.031-.775-7.583-.355,2.289-2.266,3.77-4.235,4.447-6.407l0,.018a11.434,11.434,0,0,0,3.308,3.475c2.593,1.034,3.577.747,5.893.364.459-.073,2.571,2.3,4.194.9.247-1.894,1.547-1.907-.462-3.062-.454-.256-2.533.7-2.941.646a33.041,33.041,0,0,1-5.471-1.189c-.958-1.234-3.059-5.255-5.189-5.593a11.428,11.428,0,0,1,6.9-6.2,9.239,9.239,0,0,0-7.207-3.657ZM56.951,70.5C52.583,72.33,51.5,75.221,51.5,75.221l.928.716S53.328,75.491,56.951,70.5Zm2.157,14.978-.436,1.069a5.957,5.957,0,0,1,1.435.151,33.254,33.254,0,0,0-2.638,8.714l-.085.707.455-.551a31.031,31.031,0,0,0,4.208-8.03,8.4,8.4,0,0,1,1.13.875l.447-1.065-1.921-.8-2.974,6.232,2.252-6.526-1.874-.779Z" transform="translate(-20.031 -66.13)" fill="#fff"/>
</svg>
