<svg xmlns="http://www.w3.org/2000/svg" width="38.798" height="30.801" viewBox="0 0 38.798 30.801">
  <path id="iconmonstr-medium-1" d="M4.6,9.284a1.5,1.5,0,0,0-.49-1.267L.49,3.651V3H11.738l8.694,19.068L28.075,3H38.8v.651l-3.1,2.97a.908.908,0,0,0-.344.87V29.312a.906.906,0,0,0,.344.868l3.025,2.97V33.8H23.51V33.15l3.135-3.042c.307-.307.307-.4.307-.868V11.6L18.24,33.73H17.063L6.919,11.6V26.433a2.047,2.047,0,0,0,.561,1.7l4.075,4.944v.653H0v-.653l4.075-4.944a1.97,1.97,0,0,0,.525-1.7V9.284Z" transform="translate(0 -3)" fill="#fff" fill-rule="evenodd"/>
</svg>
