<svg xmlns="http://www.w3.org/2000/svg" width="37.901" height="30.801" viewBox="0 0 37.901 30.801">
  <path id="iconmonstr-twitter-1" d="M37.9,5.894a15.524,15.524,0,0,1-4.466,1.224,7.788,7.788,0,0,0,3.419-4.3A15.577,15.577,0,0,1,31.916,4.7a7.781,7.781,0,0,0-13.251,7.091A22.074,22.074,0,0,1,2.639,3.671,7.786,7.786,0,0,0,5.044,14.053a7.743,7.743,0,0,1-3.52-.973A7.781,7.781,0,0,0,7.76,20.8a7.794,7.794,0,0,1-3.512.133,7.782,7.782,0,0,0,7.264,5.4A15.634,15.634,0,0,1,0,29.556a22.013,22.013,0,0,0,11.92,3.493c14.437,0,22.594-12.193,22.1-23.129A15.831,15.831,0,0,0,37.9,5.894Z" transform="translate(0 -2.248)" fill="#fff"/>
</svg>
