<svg id="OpenSea-Full-Logo_dark_" data-name="OpenSea-Full-Logo (dark)" xmlns="http://www.w3.org/2000/svg" width="39.198" height="39.198" viewBox="0 0 39.198 39.198">
  <path id="Path_78" data-name="Path 78" d="M39.2,19.6A19.6,19.6,0,1,1,19.6,0,19.6,19.6,0,0,1,39.2,19.6Z" fill="#fff"/>
  <path id="Path_79" data-name="Path 79" d="M24.625,39.1l.086-.135,5.178-8.1a.177.177,0,0,1,.311.022c.865,1.939,1.611,4.35,1.262,5.85a9.144,9.144,0,0,1-1.018,2.227c-.059.112-.125.223-.194.329a.176.176,0,0,1-.147.078H24.776A.177.177,0,0,1,24.625,39.1Z" transform="translate(-14.987 -18.771)" fill="#171516"/>
  <path id="Path_80" data-name="Path 80" d="M45.539,34.116V35.4a.184.184,0,0,1-.11.168,6.375,6.375,0,0,0-2.343,1.6c-1.456,2.027-2.568,4.924-5.055,4.924H27.656A6.667,6.667,0,0,1,21,35.406v-.119a.178.178,0,0,1,.178-.178h5.783a.2.2,0,0,1,.188.219,1.974,1.974,0,0,0,.207,1.11,2.035,2.035,0,0,0,1.824,1.133h2.863V35.337h-2.83a.182.182,0,0,1-.147-.286c.031-.047.065-.1.1-.151.268-.38.65-.971,1.031-1.644a12.877,12.877,0,0,0,.714-1.425c.041-.088.074-.178.106-.266.055-.155.112-.3.153-.446.041-.123.074-.252.106-.372a5.76,5.76,0,0,0,.137-1.3c0-.178-.008-.364-.025-.542-.008-.194-.033-.389-.057-.583-.016-.172-.047-.342-.08-.519-.041-.26-.1-.517-.164-.777l-.022-.1c-.049-.178-.09-.348-.147-.526-.162-.558-.348-1.1-.544-1.611-.072-.2-.153-.4-.235-.591-.121-.292-.243-.558-.356-.81-.057-.115-.106-.219-.155-.325s-.112-.241-.17-.356c-.041-.088-.088-.17-.121-.252l-.35-.646a.114.114,0,0,1,.129-.166l2.188.593h.006s.006,0,.008,0l.288.08.317.09.117.033v-1.3A1.131,1.131,0,0,1,33.167,20a1.11,1.11,0,0,1,.8.333,1.143,1.143,0,0,1,.329.8v1.93l.233.065a.186.186,0,0,1,.053.027c.057.043.139.106.243.184.082.065.17.145.276.227.211.17.462.389.738.64.074.063.145.129.211.194.356.331.755.72,1.135,1.149.106.121.211.243.317.372s.219.26.317.389c.129.172.268.35.389.536.057.088.123.178.178.266.155.235.292.479.423.722.055.112.112.235.162.356a5.2,5.2,0,0,1,.333.988,1.235,1.235,0,0,1,.047.219v.016a1.873,1.873,0,0,1,.041.309,3.3,3.3,0,0,1-.057,1.02,3.72,3.72,0,0,1-.121.427c-.049.139-.1.284-.162.421a5.712,5.712,0,0,1-.44.834c-.055.1-.121.2-.186.3s-.145.2-.211.3c-.09.123-.186.252-.284.366a3.882,3.882,0,0,1-.276.348c-.137.162-.268.315-.4.462-.082.1-.17.194-.26.282s-.178.186-.26.268c-.137.137-.252.243-.348.331l-.225.207a.184.184,0,0,1-.121.045H34.292v2.235h2.192a2.051,2.051,0,0,0,1.333-.493,15.989,15.989,0,0,0,1.356-1.333.17.17,0,0,1,.084-.051l6.055-1.75A.179.179,0,0,1,45.539,34.116Z" transform="translate(-12.974 -12.312)" fill="#171516"/>
</svg>
