<svg id="OpenSea" xmlns="http://www.w3.org/2000/svg" width="30.362" height="30.362" viewBox="0 0 30.362 30.362">
  <path id="Path_78" data-name="Path 78" d="M30.362,15.181A15.181,15.181,0,1,1,15.181,0,15.181,15.181,0,0,1,30.362,15.181Z" fill="#fff"/>
  <path id="Path_79" data-name="Path 79" d="M24.618,37.229l.067-.1L28.7,30.851a.137.137,0,0,1,.241.017c.67,1.5,1.248,3.369.977,4.532a7.083,7.083,0,0,1-.789,1.725c-.046.087-.1.173-.15.255a.136.136,0,0,1-.114.06H24.736A.137.137,0,0,1,24.618,37.229Z" transform="translate(-17.153 -21.48)" fill="#2e2c2d"/>
  <path id="Path_80" data-name="Path 80" d="M40.007,30.934v.993a.143.143,0,0,1-.086.13,4.938,4.938,0,0,0-1.815,1.235c-1.128,1.57-1.989,3.814-3.915,3.814H26.156A5.164,5.164,0,0,1,21,31.933v-.092a.138.138,0,0,1,.138-.138h4.479a.152.152,0,0,1,.146.169,1.529,1.529,0,0,0,.16.86,1.576,1.576,0,0,0,1.413.878h2.218V31.879H27.361a.141.141,0,0,1-.114-.222c.024-.036.051-.074.079-.117.208-.295.5-.752.8-1.273a9.974,9.974,0,0,0,.553-1.1c.032-.068.057-.138.082-.206.043-.12.087-.233.119-.345.032-.1.057-.195.082-.288a4.462,4.462,0,0,0,.106-1.011c0-.138-.006-.282-.019-.42s-.025-.3-.044-.451c-.013-.133-.036-.265-.062-.4-.032-.2-.076-.4-.127-.6l-.017-.076c-.038-.138-.07-.269-.114-.407-.125-.432-.269-.854-.421-1.248-.055-.157-.119-.307-.182-.458-.093-.227-.188-.432-.276-.627-.044-.089-.082-.169-.12-.252s-.087-.187-.131-.276c-.032-.068-.068-.131-.093-.195l-.271-.5a.088.088,0,0,1,.1-.128l1.695.459h0l.006,0,.223.062.246.07.09.025V20.881A.876.876,0,0,1,30.424,20a.86.86,0,0,1,.616.258.886.886,0,0,1,.255.622v1.5l.181.051a.144.144,0,0,1,.041.021l.188.143c.063.051.131.112.214.176.163.131.358.3.572.5.057.049.112.1.163.15.276.257.584.558.879.89.082.093.163.188.246.288s.169.2.245.3c.1.133.208.271.3.415.044.068.1.138.138.206.12.182.226.371.328.559.043.087.087.182.125.276a4.03,4.03,0,0,1,.258.765.956.956,0,0,1,.036.169v.013a1.451,1.451,0,0,1,.032.239,2.559,2.559,0,0,1-.044.79,2.881,2.881,0,0,1-.093.331c-.038.108-.076.22-.125.326a4.424,4.424,0,0,1-.341.646c-.043.076-.093.157-.144.233s-.112.157-.163.231c-.07.1-.144.195-.22.284a3.008,3.008,0,0,1-.214.269c-.106.125-.208.244-.314.358-.063.074-.131.15-.2.219s-.138.144-.2.207c-.106.106-.195.188-.269.257l-.174.16a.142.142,0,0,1-.093.035H31.3v1.731h1.7a1.588,1.588,0,0,0,1.033-.382,12.386,12.386,0,0,0,1.05-1.033.132.132,0,0,1,.065-.04l4.69-1.356A.138.138,0,0,1,40.007,30.934Z" transform="translate(-14.783 -14.045)" fill="#2e2c2d"/>
</svg>
