<svg xmlns="http://www.w3.org/2000/svg" width="33.8" height="33.794" viewBox="0 0 33.8 33.794">
  <path id="Path_102" data-name="Path 102" d="M51.682,32.378A1.331,1.331,0,0,0,50.745,32h0l-10.481.033a1.331,1.331,0,0,0-1.019.476l-11.566,14-1.364-1.364a2.645,2.645,0,0,0-3.713,0l-2.086,2.086a2.612,2.612,0,0,0,0,3.713l3.434,3.434-4.929,4.912a2.661,2.661,0,0,0,0,3.729l2.021,2.021a2.678,2.678,0,0,0,3.729,0l4.912-4.929,3.434,3.434a2.645,2.645,0,0,0,3.713,0l2.086-2.086a2.612,2.612,0,0,0,0-3.713L37.553,56.38l14-11.566a1.331,1.331,0,0,0,.476-1.019l.033-10.481A1.331,1.331,0,0,0,51.682,32.378ZM49.4,43.171,35.68,54.507l-2.136-2.136,8.937-8.921a1.331,1.331,0,0,0-1.873-1.873l-8.921,8.937-2.136-2.136L40.888,34.661l8.543-.033Z" transform="translate(-18.259 -32)" fill="#fff"/>
</svg>
