<svg xmlns="http://www.w3.org/2000/svg" width="34.26" height="34.26" viewBox="0 0 34.26 34.26">
  <path id="Path_103" data-name="Path 103" d="M66.117,38.5l-2.855-5.71A1.463,1.463,0,0,0,61.977,32H36.282A1.463,1.463,0,0,0,35,32.785L32.143,38.5a1.606,1.606,0,0,0-.143.642V63.4a2.855,2.855,0,0,0,2.855,2.855H63.4A2.855,2.855,0,0,0,66.26,63.4V39.137A1.606,1.606,0,0,0,66.117,38.5ZM56.2,54.073l-6.049,6.067a1.463,1.463,0,0,1-2.034,0l-6.049-6.067a1.427,1.427,0,0,1,2.016-2.016L47.7,55.678V44.847a1.427,1.427,0,1,1,2.855,0V55.678l3.622-3.622A1.427,1.427,0,0,1,56.2,54.073ZM35.729,37.71l1.427-2.855H61.1L62.53,37.71Z" transform="translate(-32 -32)" fill="#fff"/>
</svg>
