<svg xmlns="http://www.w3.org/2000/svg" width="34.388" height="34.388" viewBox="0 0 34.388 34.388">
  <path id="Path_104" data-name="Path 104" d="M53.451,53.22a17.16,17.16,0,0,0,0-24.07,3971.385,3971.385,0,0,0-.231-.231,17.16,17.16,0,0,0-24.07,0,19857.677,19857.677,0,0,0-.231.231,17.16,17.16,0,0,0,0,24.07l.116.116a.38.38,0,0,0,.116.116,17.16,17.16,0,0,0,24.07,0,3309.49,3309.49,0,0,0,.231-.231ZM35.895,41.185a5.29,5.29,0,1,1,5.29,5.29A5.29,5.29,0,0,1,35.895,41.185Zm14.6-11.175L45.78,34.721a7.919,7.919,0,0,0-9.191,0L31.878,30.01a14.531,14.531,0,0,1,18.614,0ZM31.878,52.36l4.711-4.711a7.919,7.919,0,0,0,9.191,0l4.711,4.711A14.531,14.531,0,0,1,31.878,52.36Z" transform="translate(-23.991 -23.991)" fill="#fff"/>
</svg>
